<svg width="100" height="100" viewBox="0 0 100 100" fill="none" xmlns="http://www.w3.org/2000/svg">
<path d="M45.2877 50H24.9854C18.0586 50 12.1626 47.5677 7.2975 42.7031C2.4325 37.8385 0 31.9453 0 25.0234C0 18.1015 2.4325 12.2005 7.2975 7.3203C12.1626 2.4401 18.0586 0 24.9854 0H45.2877V8.29338H24.9978C20.3351 8.29338 16.3806 9.91268 13.134 13.1513C9.88753 16.3898 8.26427 20.3347 8.26427 24.986C8.26427 29.6374 9.88753 33.5918 13.134 36.8493C16.3806 40.1069 20.3351 41.7357 24.9978 41.7357H45.2877V50ZM29.9509 28.8277V21.2014H68.5406V28.8277H29.9509ZM53.2038 50V41.7357H73.4937C78.1563 41.7357 82.1109 40.1164 85.3575 36.8778C88.604 33.6393 90.2272 29.6944 90.2272 25.0431C90.2272 20.3917 88.604 16.4373 85.3575 13.1798C82.1109 9.92218 78.1563 8.29338 73.4937 8.29338H53.2038V0H73.5061C80.4267 0 86.326 2.43933 91.2038 7.318C96.0817 12.1967 98.5206 18.097 98.5206 25.0189C98.5206 31.9407 96.0817 37.8347 91.2038 42.7008C86.326 47.5669 80.4267 50 73.5061 50H53.2038Z" fill="#96DDF3"/>
</svg>
