<svg width="50" height="50" fill="none" version="1.1" viewBox="50 0 74.832 44.615" xmlns="http://www.w3.org/2000/svg">
 <path d="m92.179-5.9818 29.445 51c2.117 3.6667-0.529 8.25-4.763 8.25h-58.89c-4.2339 0-6.8801-4.5833-4.7631-8.25l29.445-51c2.1169-3.6667 7.4091-3.6667 9.5261 0z" stroke="#8c4031" stroke-width="5"/>
 <path d="m89.791 9.4046-0.355 26.136h-4.1194l-0.3551-26.136zm-2.415 36.648c-0.876 0-1.6274-0.3137-2.2547-0.9411-0.6274-0.6273-0.9411-1.379-0.9411-2.2549 0-0.876 0.3137-1.6276 0.9411-2.255 0.6273-0.6274 1.3787-0.9411 2.2547-0.9411s1.628 0.3137 2.255 0.9411c0.628 0.6274 0.941 1.379 0.941 2.255 0 0.58-0.148 1.1127-0.444 1.598-0.284 0.4853-0.668 0.8759-1.154 1.1719-0.473 0.284-1.006 0.4261-1.598 0.4261z" fill="#8c4031"/>
</svg>
