<svg width="100" height="100" viewBox="0 0 104 100" fill="none" xmlns="http://www.w3.org/2000/svg">
<path d="M87.2467 70.8247L80.3225 63.9607C84.5444 63.1411 88.0626 61.1612 90.8772 58.0208C93.6918 54.8804 95.0991 51.1949 95.0991 46.9642C95.0991 42.1835 93.4059 38.0969 90.0194 34.7045C86.633 31.3123 82.5492 29.6161 77.768 29.6161H58.578V21.0053H77.7379C84.9299 21.0053 91.0566 23.536 96.1179 28.5974C101.179 33.6586 103.71 39.7853 103.71 46.9773C103.71 52.2432 102.194 57.0154 99.1608 61.294C96.1281 65.5724 92.1567 68.7493 87.2467 70.8247ZM67.2681 50.9364L59.4102 43.0183H72.6125V50.9364H67.2681ZM94.3435 100L0 5.65655L5.65655 0L100 94.3434L94.3435 100ZM48.861 72.5413H27.7817C20.5897 72.5413 14.4631 70.0157 9.40176 64.9645C4.34047 59.9132 1.80982 53.7915 1.80982 46.5995C1.80982 40.5341 3.6529 35.1573 7.33904 30.469C11.0252 25.7808 15.765 22.7586 21.5584 21.4024L29.3943 29.2383H27.7817C22.9721 29.2383 18.8762 30.9294 15.494 34.3117C12.1117 37.6939 10.4205 41.7898 10.4205 46.5995C10.4205 51.4092 12.1129 55.5051 15.4977 58.8873C18.8825 62.2696 22.9814 63.9607 27.7946 63.9607H48.861V72.5413ZM32.9373 50.5586V42.6404H42.7965L50.7146 50.5586H32.9373Z" fill="#96DDF3"/>
</svg>
