<svg width="38" height="115" viewBox="0 0 38 115" fill="none" xmlns="http://www.w3.org/2000/svg">
<mask id="path-1-inside-1_7_68" fill="white">
<path fill-rule="evenodd" clip-rule="evenodd" d="M31.7554 84.3049C35.4901 84.3049 38.3173 80.9295 37.6624 77.2527L24.907 5.64782C23.7319 -0.949189 14.2682 -0.949169 13.093 5.64784L0.3377 77.2527C-0.317275 80.9295 2.50998 84.3049 6.24471 84.3049H7.00003C10.3137 84.3049 13 86.9912 13 90.3049V109C13 112.314 15.6863 115 19 115C22.3137 115 25 112.314 25 109V90.3049C25 86.9912 27.6863 84.3049 31 84.3049H31.7554Z"/>
</mask>
<path d="M0.3377 77.2527L-2.61581 76.7266L0.3377 77.2527ZM37.6624 77.2527L34.7089 77.7788L37.6624 77.2527ZM13.093 5.64784L10.1395 5.12172H10.1395L13.093 5.64784ZM21.9535 6.17394L34.7089 77.7788L40.6159 76.7266L27.8606 5.1217L21.9535 6.17394ZM3.29121 77.7788L16.0465 6.17396L10.1395 5.12172L-2.61581 76.7266L3.29121 77.7788ZM7.00003 81.3049H6.24471V87.3049H7.00003V81.3049ZM16 109V90.3049H10V109H16ZM22 90.3049V109H28V90.3049H22ZM31.7554 81.3049H31V87.3049H31.7554V81.3049ZM28 90.3049C28 88.6481 29.3432 87.3049 31 87.3049V81.3049C26.0295 81.3049 22 85.3344 22 90.3049H28ZM19 118C23.9706 118 28 113.97 28 109H22C22 110.657 20.6569 112 19 112V118ZM10 109C10 113.97 14.0295 118 19 118V112C17.3432 112 16 110.657 16 109H10ZM7.00003 87.3049C8.65689 87.3049 10 88.6481 10 90.3049H16C16 85.3344 11.9706 81.3049 7.00003 81.3049V87.3049ZM-2.61581 76.7266C-3.59827 82.2418 0.642622 87.3049 6.24471 87.3049V81.3049C4.37735 81.3049 2.96372 79.6172 3.29121 77.7788L-2.61581 76.7266ZM34.7089 77.7788C35.0364 79.6172 33.6227 81.3049 31.7554 81.3049V87.3049C37.3575 87.3049 41.5983 82.2418 40.6159 76.7266L34.7089 77.7788ZM27.8606 5.1217C26.0978 -4.77386 11.9022 -4.77375 10.1395 5.12172L16.0465 6.17396C16.6341 2.87542 21.366 2.87548 21.9535 6.17394L27.8606 5.1217Z" fill="#ACCF74" mask="url(#path-1-inside-1_7_68)"/>
</svg>
