<svg width="28" height="80" viewBox="0 0 28 80" fill="none" xmlns="http://www.w3.org/2000/svg">
<path d="M23.3796 29.9317C22.1118 27.3961 23.0934 24.3645 24.8029 22.1031C26.55 19.792 27.5862 16.9136 27.5862 13.7931C27.5862 6.17539 21.4109 0 13.7931 0C6.17539 0 0 6.17539 0 13.7931C0 16.9136 1.03621 19.792 2.78331 22.1031C4.49287 24.3645 5.4744 27.3961 4.20659 29.9317L1.23369 35.8775C0.457063 37.4307 0.457061 39.259 1.23369 40.8123L7.61151 53.5679C7.8978 54.1405 8.08226 54.7585 8.15663 55.3944L10.714 77.2601C10.8967 78.8222 12.2203 80 13.7931 80C15.3659 80 16.6895 78.8222 16.8722 77.26L19.4296 55.3944C19.5039 54.7586 19.6884 54.1406 19.9747 53.568L26.3525 40.8123C27.1292 39.259 27.1292 37.4307 26.3525 35.8775L23.3796 29.9317Z" fill="#FF7559"/>
<circle cx="13.7931" cy="13.5169" r="6.89656" fill="#8C4031"/>
</svg>
