<svg width="39" height="125" viewBox="0 0 39 125" fill="none" xmlns="http://www.w3.org/2000/svg">
<mask id="path-1-inside-1_10_69" fill="white">
<path fill-rule="evenodd" clip-rule="evenodd" d="M34.9001 93.6049C37.3899 93.6049 39.2747 91.3546 38.8381 88.9034L23.695 3.8943C22.9116 -0.503706 16.6024 -0.503689 15.819 3.89432L0.675907 88.9034C0.239257 91.3546 2.1241 93.6049 4.61392 93.6049H9.75699C11.9661 93.6049 13.757 95.3957 13.757 97.6049V120.3C13.757 122.509 15.5479 124.3 17.757 124.3H21.757C23.9661 124.3 25.757 122.509 25.757 120.3V97.6049C25.757 95.3957 27.5479 93.6049 29.757 93.6049H34.9001Z"/>
</mask>
<path d="M38.8381 88.9034L35.8846 89.4295L38.8381 88.9034ZM23.695 3.8943L20.7415 4.42042L23.695 3.8943ZM15.819 3.89432L12.8655 3.36819L15.819 3.89432ZM20.7415 4.42042L35.8846 89.4295L41.7916 88.3772L26.6485 3.36818L20.7415 4.42042ZM3.62941 89.4295L18.7725 4.42044L12.8655 3.36819L-2.2776 88.3773L3.62941 89.4295ZM9.75699 90.6049H4.61392V96.6049H9.75699V90.6049ZM16.757 120.3V97.6049H10.757V120.3H16.757ZM21.757 121.3H17.757V127.3H21.757V121.3ZM22.757 97.6049V120.3H28.757V97.6049H22.757ZM34.9001 90.6049H29.757V96.6049H34.9001V90.6049ZM28.757 97.6049C28.757 97.0526 29.2047 96.6049 29.757 96.6049V90.6049C25.891 90.6049 22.757 93.7389 22.757 97.6049H28.757ZM21.757 127.3C25.623 127.3 28.757 124.166 28.757 120.3H22.757C22.757 120.852 22.3093 121.3 21.757 121.3V127.3ZM10.757 120.3C10.757 124.166 13.891 127.3 17.757 127.3V121.3C17.2047 121.3 16.757 120.852 16.757 120.3H10.757ZM9.75699 96.6049C10.3093 96.6049 10.757 97.0526 10.757 97.6049H16.757C16.757 93.7389 13.623 90.6049 9.75699 90.6049V96.6049ZM-2.2776 88.3773C-3.04174 92.6669 0.256734 96.6049 4.61392 96.6049V90.6049C3.99146 90.6049 3.52025 90.0423 3.62941 89.4295L-2.2776 88.3773ZM35.8846 89.4295C35.9937 90.0423 35.5225 90.6049 34.9001 90.6049V96.6049C39.2573 96.6049 42.5557 92.6669 41.7916 88.3772L35.8846 89.4295ZM26.6485 3.36818C25.2775 -4.32838 14.2365 -4.32826 12.8655 3.36819L18.7725 4.42044C18.839 4.04727 18.9852 3.88598 19.1003 3.79734C19.2467 3.68461 19.4764 3.5958 19.757 3.5958C20.0376 3.5958 20.2673 3.68461 20.4136 3.79733C20.5287 3.88597 20.675 4.04725 20.7415 4.42042L26.6485 3.36818Z" fill="#D8965A" mask="url(#path-1-inside-1_10_69)"/>
</svg>
