<svg width="63" height="80" viewBox="0 0 63 80" fill="none" xmlns="http://www.w3.org/2000/svg">
<path d="M3.16983 51.4447L18.3732 77.7778C20.0839 80.7407 24.3606 80.7407 26.0712 77.7778L41.2746 51.4447C43.287 48.1019 44.4445 44.1861 44.4445 40C44.4445 27.727 34.4952 17.7778 22.2222 17.7778C9.94924 17.7778 6.31809e-06 27.727 6.31809e-06 40C6.31809e-06 44.1861 1.15747 48.1019 3.16983 51.4447Z" fill="#76C2D9"/>
<path d="M33.667 59.0524L60 43.849C62.963 42.1383 62.963 37.8617 60 36.151L33.667 20.9476C30.3241 18.9352 26.4083 17.7778 22.2222 17.7778C9.94924 17.7778 6.31809e-06 27.727 6.31809e-06 40C6.31809e-06 52.273 9.94923 62.2222 22.2222 62.2222C26.4083 62.2222 30.3241 61.0648 33.667 59.0524Z" fill="#76C2D9"/>
<path d="M41.2746 28.5553L26.0712 2.22222C24.3606 -0.740741 20.0839 -0.740741 18.3732 2.22222L3.16984 28.5553C1.15748 31.8981 6.31809e-06 35.8139 6.31809e-06 40C6.31809e-06 52.273 9.94923 62.2222 22.2222 62.2222C34.4952 62.2222 44.4445 52.273 44.4445 40C44.4445 35.8139 43.287 31.8981 41.2746 28.5553Z" fill="#76C2D9"/>
<circle cx="22.2222" cy="39.9997" r="11.1111" transform="rotate(180 22.2222 39.9997)" fill="#437282"/>
</svg>
